Coordinates
version=1
nRows=6
nColumns=36
inDegrees=yes

Units are S.I. units (second, meters, Newtons, ...)
If the header above contains a line with 'inDegrees', this indicates whether rotational values are in degrees (yes) or radians (no).

endheader
time	pelvis_tilt	pelvis_list	pelvis_rotation	pelvis_tx	pelvis_ty	pelvis_tz	hip_flexion_r	hip_adduction_r	hip_rotation_r	knee_angle_r	knee_angle_r_beta	ankle_angle_r	subtalar_angle_r	mtp_angle_r	hip_flexion_l	hip_adduction_l	hip_rotation_l	knee_angle_l	knee_angle_l_beta	ankle_angle_l	subtalar_angle_l	mtp_angle_l	lumbar_extension	lumbar_bending	lumbar_rotation	arm_flex_r	arm_add_r	arm_rot_r	elbow_flex_r	pro_sup_r	arm_flex_l	arm_add_l	arm_rot_l	elbow_flex_l	pro_sup_l
      1.18000000	      6.18564330	     -2.36950612	     -1.58150470	      1.14497998	      1.14167322	     -0.21433294	     18.44997701	      5.08631529	      6.94681963	     10.07576439	      0.17585526	     -0.12417901	     -6.33983716	     -7.49990178	    -17.60880373	      3.26439989	      1.89705632	      0.95033937	      0.01658655	     19.55968125	      2.91025230	     -7.49990178	    -18.45358376	      2.28658650	     -4.11445214	     -4.22904285	    -10.12009754	      0.90760240	     31.36332629	     75.47176657	     -1.00520455	    -13.40136236	     -7.47503022	     36.91591617	     73.80171847
      1.19000000	      6.35903737	     -2.44896820	     -1.55073204	      1.15471002	      1.14142493	     -0.21330749	     18.21017087	      5.23326215	      6.79234320	      9.08933101	      0.15863875	      0.27918791	     -5.76416829	     -7.49991460	    -18.15509483	      3.12749146	      1.92844541	      1.23724817	      0.02159405	     20.42217541	      3.03686789	     -7.49991460	    -18.91280818	      2.39618639	     -4.12594403	     -3.85918860	    -10.01868603	      1.12474581	     31.16379802	     75.77016058	     -0.83804736	    -13.36393674	     -7.72016072	     37.03593735	     74.33313437
      1.20000000	      6.52191590	     -2.53851705	     -1.53319248	      1.16483854	      1.14182837	     -0.21248444	     17.98748957	      5.40281084	      6.61493756	      8.38674211	      0.14637626	      0.55804715	     -5.40487737	     -7.49993095	    -18.67448311	      2.97983015	      2.05001467	      1.59120052	      0.02777169	     21.05413629	      2.86852076	     -7.49993095	    -19.31718700	      2.49686657	     -3.97317399	     -3.60409384	     -9.87469644	      1.03524190	     30.92054264	     76.20138167	     -0.61445376	    -13.34032306	     -7.71834623	     37.12960809	     74.92397985
      1.21000000	      6.70916791	     -2.62789509	     -1.48439112	      1.17529964	      1.14262605	     -0.21212670	     17.74537356	      5.56813694	      6.43911714	      7.95774189	      0.13888880	      0.57318748	     -5.44334633	     -7.49993757	    -19.19769608	      2.81427971	      2.16490961	      2.01135754	      0.03510481	     21.59298010	      2.66547137	     -7.49993757	    -19.73373652	      2.60589194	     -3.90654925	     -3.38688977	     -9.83246110	      1.47987354	     30.83921580	     75.96214749	     -0.42364301	    -13.47228509	     -7.14529957	     37.13626670	     74.47692596
      1.22000000	      6.91896199	     -2.73570440	     -1.40687720	      1.18618301	      1.14350196	     -0.21241282	     17.44143007	      5.73477030	      6.11812683	      7.72609228	      0.13484575	      0.64288931	     -5.36748135	     -7.49993995	    -19.72434313	      2.62610452	      2.28088294	      2.49867247	      0.04361006	     21.88279496	      2.35054821	     -7.49993995	    -20.11103267	      2.75846555	     -3.69025137	     -3.32401660	     -9.70519429	      1.08898012	     30.77532166	     75.85992633	     -0.19806756	    -13.35223509	     -7.03461795	     37.15593578	     74.38965431
      1.23000000	      7.16490360	     -2.83186746	     -1.29163245	      1.19731613	      1.14411195	     -0.21335256	     17.11624106	      5.87764511	      5.80651500	      7.75664611	      0.13537901	      0.47535515	     -5.64244482	     -7.49994394	    -20.26872375	      2.44111416	      2.42607641	      3.04584172	      0.05315997	     22.03545074	      1.92557024	     -7.49994394	    -20.51069046	      2.92124481	     -3.58705419	     -3.30702198	     -9.62683539	      0.91472703	     30.86636517	     75.61877122	     -0.03826497	    -13.28270348	     -6.82549297	     37.14904723	     74.06277603
